<svg width="128" height="128" viewBox="0 0 128 128" fill="none" xmlns="http://www.w3.org/2000/svg">
  <!-- Background rounded square -->
  <rect width="128" height="128" rx="28" fill="url(#gradient)"/>
  
  <!-- Crosshair circle -->
  <circle cx="64" cy="64" r="28" stroke="#FFFFFF" stroke-width="5" fill="none" opacity="0.95"/>
  
  <!-- Center dot -->
  <circle cx="64" cy="64" r="6" fill="#FFFFFF"/>
  
  <!-- Crosshair lines -->
  <line x1="64" y1="26" x2="64" y2="36" stroke="#FFFFFF" stroke-width="3.5" stroke-linecap="round"/>
  <line x1="64" y1="92" x2="64" y2="102" stroke="#FFFFFF" stroke-width="3.5" stroke-linecap="round"/>
  <line x1="26" y1="64" x2="36" y2="64" stroke="#FFFFFF" stroke-width="3.5" stroke-linecap="round"/>
  <line x1="92" y1="64" x2="102" y2="64" stroke="#FFFFFF" stroke-width="3.5" stroke-linecap="round"/>
  
  <!-- Small sparkle/tweak indicator -->
  <g transform="translate(88, 28)">
    <path d="M8 0L10 6L16 8L10 10L8 16L6 10L0 8L6 6Z" fill="#FFFFFF" opacity="0.9"/>
  </g>
  
  <!-- Pencil/edit indicator -->
  <g transform="translate(85, 85)" fill="#FFFFFF" opacity="0.85">
    <path d="M2 16L0 22L6 20L18 8L14 4L2 16Z"/>
    <path d="M14 4L18 0L22 4L18 8L14 4Z"/>
  </g>
  
  <defs>
    <linearGradient id="gradient" x1="0" y1="0" x2="128" y2="128" gradientUnits="userSpaceOnUse">
      <stop offset="0%" stop-color="#6366F1"/>
      <stop offset="100%" stop-color="#8B5CF6"/>
    </linearGradient>
  </defs>
</svg>
